<mxfile host="app.diagrams.net" modified="2024-07-19T00:56:13.058Z" agent="Mozilla/5.0 (X11; Linux x86_64) AppleWebKit/537.36 (KHTML, like Gecko) Chrome/126.0.0.0 Safari/537.36" etag="UYskB81pw4FXMrU2wze6" version="24.7.1" type="github">
  <diagram name="Page-1" id="e56a1550-8fbb-45ad-956c-1786394a9013">
    <mxGraphModel dx="775" dy="751" grid="1" gridSize="10" guides="1" tooltips="1" connect="1" arrows="1" fold="1" page="1" pageScale="1" pageWidth="1100" pageHeight="850" background="none" math="0" shadow="0">
      <root>
        <mxCell id="0" />
        <mxCell id="1" parent="0" />
        <mxCell id="iYViYUlERKXAkGXEU9x6-1" value="Jogador" style="rounded=0;whiteSpace=wrap;html=1;fillColor=#0D0007;fontColor=#FFFFFF;" vertex="1" parent="1">
          <mxGeometry x="540" y="400" width="120" height="60" as="geometry" />
        </mxCell>
        <mxCell id="iYViYUlERKXAkGXEU9x6-2" value="Cenário" style="rounded=0;whiteSpace=wrap;html=1;fillColor=#0D0007;fontColor=#FFFFFF;" vertex="1" parent="1">
          <mxGeometry x="790" y="400" width="120" height="60" as="geometry" />
        </mxCell>
        <mxCell id="iYViYUlERKXAkGXEU9x6-4" value="NPC&lt;span style=&quot;color: rgba(0, 0, 0, 0); font-family: monospace; font-size: 0px; text-align: start; text-wrap: nowrap;&quot;&gt;%3CmxGraphModel%3E%3Croot%3E%3CmxCell%20id%3D%220%22%2F%3E%3CmxCell%20id%3D%221%22%20parent%3D%220%22%2F%3E%3CmxCell%20id%3D%222%22%20value%3D%22Jogador%22%20style%3D%22rounded%3D0%3BwhiteSpace%3Dwrap%3Bhtml%3D1%3BfillColor%3D%230D0007%3BfontColor%3D%23FFFFFF%3B%22%20vertex%3D%221%22%20parent%3D%221%22%3E%3CmxGeometry%20x%3D%22540%22%20y%3D%22400%22%20width%3D%22120%22%20height%3D%2260%22%20as%3D%22geometry%22%2F%3E%3C%2FmxCell%3E%3C%2Froot%3E%3C%2FmxGraphModel%3E&lt;/span&gt;" style="rounded=0;whiteSpace=wrap;html=1;fillColor=#0D0007;fontColor=#FFFFFF;" vertex="1" parent="1">
          <mxGeometry x="540" y="570" width="120" height="60" as="geometry" />
        </mxCell>
        <mxCell id="iYViYUlERKXAkGXEU9x6-5" value="Inventário" style="rounded=0;whiteSpace=wrap;html=1;fillColor=#0D0007;fontColor=#FFFFFF;" vertex="1" parent="1">
          <mxGeometry x="300" y="395" width="120" height="60" as="geometry" />
        </mxCell>
        <mxCell id="iYViYUlERKXAkGXEU9x6-6" value="Item" style="rounded=0;whiteSpace=wrap;html=1;fillColor=#0D0007;fontColor=#FFFFFF;" vertex="1" parent="1">
          <mxGeometry x="300" y="180" width="120" height="60" as="geometry" />
        </mxCell>
        <mxCell id="iYViYUlERKXAkGXEU9x6-7" value="Loja" style="rounded=0;whiteSpace=wrap;html=1;fillColor=#0D0007;fontColor=#FFFFFF;" vertex="1" parent="1">
          <mxGeometry x="540" y="180" width="120" height="60" as="geometry" />
        </mxCell>
      </root>
    </mxGraphModel>
  </diagram>
</mxfile>
